<svg width="190" height="30" viewBox="0 0 239 39" fill="none" xmlns="http://www.w3.org/2000/svg">
<path d="M9 24.2448V10.3906H14.2292C15.151 10.3906 15.849 10.4375 16.3385 10.526C17.0156 10.6354 17.5885 10.8542 18.0469 11.1771C18.5052 11.4896 18.875 11.9375 19.151 12.5104C19.4375 13.0833 19.5781 13.7135 19.5781 14.401C19.5781 15.5781 19.2031 16.5781 18.4531 17.3958C17.7031 18.2083 16.349 18.6146 14.3906 18.6146H10.8333V24.2448H9ZM10.8333 16.9792H14.4167C15.6042 16.9792 16.4427 16.7604 16.9427 16.3177C17.4375 15.875 17.6875 15.2552 17.6875 14.4583C17.6875 13.875 17.5417 13.3802 17.2448 12.974C16.9531 12.5573 16.5677 12.2812 16.0885 12.151C15.7812 12.0677 15.2135 12.026 14.3802 12.026H10.8333V16.9792ZM21.6406 19.2292C21.6406 17.3698 22.1562 15.9948 23.1927 15.099C24.0573 14.3542 25.1094 13.9844 26.349 13.9844C27.7292 13.9844 28.8542 14.4375 29.7344 15.3437C30.6094 16.2448 31.0469 17.4948 31.0469 19.0885C31.0469 20.3802 30.849 21.3958 30.4583 22.1406C30.0729 22.875 29.5104 23.4479 28.7656 23.8594C28.0312 24.2708 27.224 24.474 26.349 24.474C24.9427 24.474 23.8073 24.0208 22.9375 23.1198C22.0729 22.2187 21.6406 20.9219 21.6406 19.2292ZM23.3906 19.2292C23.3906 20.5156 23.6719 21.4792 24.2292 22.1198C24.7917 22.7552 25.5 23.0729 26.349 23.0729C27.1927 23.0729 27.8958 22.7552 28.4583 22.1094C29.0156 21.4688 29.2969 20.4896 29.2969 19.1719C29.2969 17.9323 29.0156 16.9896 28.4479 16.3542C27.8854 15.7135 27.1875 15.3906 26.349 15.3906C25.5 15.3906 24.7917 15.7083 24.2292 16.3437C23.6719 16.9844 23.3906 17.9427 23.3906 19.2292ZM35.4844 24.2448L32.4115 14.2083H34.1667L35.7656 20.0052L36.3594 22.1562C36.3854 22.0521 36.5573 21.3594 36.8802 20.0885L38.4792 14.2083H40.224L41.7292 20.0312L42.2292 21.9479L42.8073 20.0104L44.526 14.2083H46.1823L43.0417 24.2448H41.276L39.6771 18.2344L39.2917 16.526L37.2604 24.2448H35.4844ZM55.0677 21.0156L56.8281 21.2344C56.5469 22.2604 56.0365 23.0573 55.2865 23.625C54.5365 24.1875 53.5781 24.474 52.4115 24.474C50.9427 24.474 49.776 24.0208 48.9167 23.1198C48.0573 22.2135 47.6302 20.9479 47.6302 19.3125C47.6302 17.625 48.0625 16.3125 48.9323 15.3802C49.8021 14.4479 50.9323 13.9844 52.3177 13.9844C53.6615 13.9844 54.7552 14.4427 55.6042 15.3542C56.4583 16.2656 56.8802 17.5521 56.8802 19.2083C56.8802 19.3125 56.8802 19.4635 56.875 19.6615H49.3854C49.4531 20.7656 49.7604 21.6094 50.3229 22.1979C50.8854 22.7812 51.5833 23.0729 52.4219 23.0729C53.0469 23.0729 53.5781 22.9115 54.0208 22.5833C54.4583 22.2552 54.8073 21.7344 55.0677 21.0156ZM49.4844 18.2656H55.0885C55.0104 17.4219 54.7969 16.7865 54.4427 16.3646C53.901 15.7083 53.1979 15.3802 52.3385 15.3802C51.5573 15.3802 50.8958 15.6458 50.3594 16.1667C49.8333 16.6875 49.5417 17.3906 49.4844 18.2656ZM59.5312 24.2448V14.2083H61.0625V15.7344C61.4531 15.0208 61.8125 14.5521 62.1406 14.3229C62.474 14.099 62.8385 13.9844 63.2396 13.9844C63.8125 13.9844 64.3958 14.1667 64.9844 14.5312L64.401 16.1094C63.9844 15.8646 63.5677 15.7396 63.151 15.7396C62.7812 15.7396 62.4479 15.8542 62.151 16.0833C61.8542 16.3021 61.6406 16.6094 61.5156 17.0052C61.3281 17.6146 61.2344 18.276 61.2344 18.9948V24.2448H59.5312ZM73.4479 21.0156L75.2083 21.2344C74.9271 22.2604 74.4167 23.0573 73.6667 23.625C72.9167 24.1875 71.9583 24.474 70.7917 24.474C69.3229 24.474 68.1562 24.0208 67.2969 23.1198C66.4375 22.2135 66.0104 20.9479 66.0104 19.3125C66.0104 17.625 66.4427 16.3125 67.3125 15.3802C68.1823 14.4479 69.3125 13.9844 70.6979 13.9844C72.0417 13.9844 73.1354 14.4427 73.9844 15.3542C74.8385 16.2656 75.2604 17.5521 75.2604 19.2083C75.2604 19.3125 75.2604 19.4635 75.2552 19.6615H67.7656C67.8333 20.7656 68.1406 21.6094 68.7031 22.1979C69.2656 22.7812 69.9635 23.0729 70.8021 23.0729C71.4271 23.0729 71.9583 22.9115 72.401 22.5833C72.8385 22.2552 73.1875 21.7344 73.4479 21.0156ZM67.8646 18.2656H73.4687C73.3906 17.4219 73.1771 16.7865 72.8229 16.3646C72.2812 15.7083 71.5781 15.3802 70.7187 15.3802C69.9375 15.3802 69.276 15.6458 68.7396 16.1667C68.2135 16.6875 67.9219 17.3906 67.8646 18.2656ZM84.4427 24.2448V22.9792C83.8073 23.974 82.8698 24.474 81.6354 24.474C80.8385 24.474 80.099 24.2552 79.4271 23.8125C78.7552 23.3698 78.2396 22.7552 77.8646 21.9687C77.5 21.1771 77.3177 20.2656 77.3177 19.2396C77.3177 18.2344 77.4844 17.3281 77.8177 16.5156C78.151 15.6979 78.651 15.0677 79.3229 14.6354C79.9896 14.2031 80.7344 13.9844 81.5625 13.9844C82.1667 13.9844 82.7031 14.1146 83.1771 14.3698C83.651 14.625 84.0312 14.9531 84.3281 15.3646V10.3906H86.0208V24.2448H84.4427ZM79.0677 19.2396C79.0677 20.5208 79.3385 21.4844 79.8802 22.1198C80.4219 22.7552 81.0573 23.0729 81.7969 23.0729C82.5417 23.0729 83.1719 22.7708 83.6875 22.1667C84.2083 21.5573 84.474 20.625 84.474 19.3802C84.474 18.0052 84.2083 17 83.6771 16.3542C83.1458 15.7135 82.4948 15.3906 81.724 15.3906C80.9635 15.3906 80.3333 15.6979 79.8229 16.3177C79.3177 16.9375 79.0677 17.9062 79.0677 19.2396ZM96.8229 24.2448H95.2448V10.3906H96.9427V15.3333C97.6615 14.4323 98.5781 13.9844 99.6979 13.9844C100.312 13.9844 100.896 14.1094 101.443 14.3594C102 14.6094 102.453 14.9583 102.802 15.4115C103.161 15.8594 103.443 16.401 103.646 17.0365C103.849 17.6719 103.948 18.3542 103.948 19.0781C103.948 20.7969 103.521 22.125 102.672 23.0677C101.823 24.0052 100.802 24.474 99.6094 24.474C98.4271 24.474 97.4948 23.9792 96.8229 22.9896V24.2448ZM96.8021 19.151C96.8021 20.3542 96.9687 21.224 97.2969 21.7604C97.8281 22.6354 98.5573 23.0729 99.4687 23.0729C100.214 23.0729 100.854 22.7552 101.396 22.1094C101.937 21.4635 102.208 20.5 102.208 19.2187C102.208 17.9062 101.948 16.9427 101.427 16.3177C100.906 15.6927 100.281 15.3802 99.5417 15.3802C98.8021 15.3802 98.1562 15.7083 97.6146 16.3542C97.0729 17 96.8021 17.9323 96.8021 19.151ZM106.531 28.1146L106.344 26.5156C106.714 26.6146 107.042 26.6667 107.318 26.6667C107.693 26.6667 108 26.6042 108.224 26.4792C108.453 26.349 108.635 26.1771 108.781 25.9479C108.891 25.776 109.062 25.3542 109.302 24.6823C109.333 24.5885 109.385 24.4479 109.453 24.2656L105.646 14.2083H107.479L109.568 20.0208C109.839 20.7604 110.078 21.5365 110.292 22.349C110.49 21.5677 110.724 20.8021 110.995 20.0625L113.141 14.2083H114.839L111.021 24.4167C110.609 25.5208 110.292 26.2813 110.068 26.6927C109.766 27.2552 109.417 27.6667 109.026 27.9219C108.635 28.1875 108.172 28.3177 107.63 28.3177C107.302 28.3177 106.937 28.25 106.531 28.1146Z" fill="#828282"></path>
<path fill-rule="evenodd" clip-rule="evenodd" d="M138.008 18.0447V18.7394C138.008 18.8506 137.919 18.9406 137.811 18.9406H137.418C137.31 18.9406 137.222 18.8497 137.222 18.7394V18.0447C136.956 17.8999 136.775 17.6139 136.775 17.2838C136.775 16.8089 137.15 16.4232 137.615 16.4232C138.079 16.4232 138.455 16.808 138.455 17.2838C138.455 17.6139 138.274 17.8999 138.008 18.0447ZM137.614 21.617C138.389 20.767 139.071 19.8242 139.646 18.8021C140.221 17.7816 140.678 16.7047 141.008 15.5908C139.902 15.3277 138.765 15.1953 137.614 15.1953C136.463 15.1953 135.325 15.3286 134.218 15.5908C134.549 16.7047 135.006 17.7816 135.58 18.8021C136.156 19.8242 136.838 20.767 137.613 21.617H137.614Z" fill="#121212"></path>
<mask id="mask0_2377_334" style="mask-type:luminance" maskUnits="userSpaceOnUse" x="134" y="15" width="8" height="7">
<path d="M138.008 18.0447V18.7394C138.008 18.8506 137.919 18.9406 137.811 18.9406H137.418C137.31 18.9406 137.222 18.8497 137.222 18.7394V18.0447C136.956 17.8999 136.775 17.6139 136.775 17.2838C136.775 16.8089 137.15 16.4232 137.615 16.4232C138.079 16.4232 138.455 16.808 138.455 17.2838C138.455 17.6139 138.274 17.8999 138.008 18.0447ZM137.614 21.617C138.389 20.767 139.071 19.8242 139.646 18.8021C140.221 17.7816 140.678 16.7047 141.008 15.5908C139.902 15.3277 138.765 15.1953 137.614 15.1953C136.463 15.1953 135.325 15.3286 134.218 15.5908C134.549 16.7047 135.006 17.7816 135.58 18.8021C136.156 19.8242 136.838 20.767 137.613 21.617H137.614Z" fill="white"></path>
</mask>
<g mask="url(#mask0_2377_334)">
<path d="M141.009 15.1953H134.219V21.617H141.009V15.1953Z" fill="#121212"></path>
</g>
<path fill-rule="evenodd" clip-rule="evenodd" d="M151.334 9.31382C148.377 7.28359 144.967 5.89068 141.293 5.32751V7.9774C143.948 8.43288 146.498 9.38091 148.833 10.7924C148.867 14.4168 148.05 17.9714 146.451 21.2057L144.235 19.8948L142.018 18.5831C141.84 18.9592 141.647 19.329 141.442 19.6936C140.433 21.4855 139.138 23.0611 137.613 24.3658C137.03 23.8679 136.48 23.3295 135.969 22.7548L133.71 24.0903C134.849 25.4435 136.159 26.6334 137.613 27.63C139.75 26.1638 141.579 24.2792 143.008 22.0707L146.963 24.4099L147.439 24.6924C147.66 24.3419 147.873 23.9844 148.078 23.619C150.618 19.1136 151.648 14.1405 151.333 9.31294L151.334 9.31382Z" fill="#3B6EF8"></path>
<path fill-rule="evenodd" clip-rule="evenodd" d="M126.394 10.7924C129.44 8.95191 132.856 7.89796 136.387 7.69935V12.9435C136.793 12.9135 137.203 12.8994 137.614 12.8994C139.634 12.8994 141.612 13.2595 143.478 13.9604C143.348 14.7266 143.167 15.4831 142.938 16.2245L145.196 17.5601C145.771 15.8732 146.122 14.1158 146.237 12.3274C143.928 11.1631 141.423 10.4834 138.841 10.3201V5.07771C138.434 5.05741 138.025 5.04681 137.614 5.04681C132.536 5.04681 127.817 6.61892 123.894 9.31294C123.656 12.9515 124.183 16.673 125.544 20.2144L127.784 18.8894C126.841 16.3066 126.368 13.5694 126.394 10.7924Z" fill="#3B6EF8"></path>
<path fill-rule="evenodd" clip-rule="evenodd" d="M137.613 30.7019C134.533 28.9197 131.936 26.4172 130.002 23.3824L133.631 21.2366L134.436 20.7608C134.208 20.4148 133.99 20.059 133.785 19.6945C132.775 17.9017 132.09 15.9668 131.749 13.9613C132.462 13.693 133.192 13.4749 133.934 13.3081V10.637C132.22 10.9707 130.56 11.5383 128.991 12.3292C129.161 14.9596 129.839 17.523 130.992 19.8957L128.776 21.2066L128 21.6656L127.533 21.9419L126.56 22.5174C126.746 22.8881 126.942 23.2562 127.148 23.6217C129.687 28.127 133.375 31.5281 137.613 33.6616C140.808 32.0533 143.69 29.7247 146.003 26.7464L143.763 25.4215C142.051 27.5488 139.973 29.3381 137.613 30.7036V30.7019Z" fill="#3B6EF8"></path>
<path d="M228.876 15.8335V26.5944H227.07V15.8335H228.876ZM226.934 12.9792C226.934 12.6808 227.021 12.4289 227.196 12.2233C227.377 12.0178 227.643 11.915 227.992 11.915C228.335 11.915 228.597 12.0178 228.779 12.2233C228.966 12.4289 229.06 12.6808 229.06 12.9792C229.06 13.2643 228.966 13.5096 228.779 13.7152C228.597 13.9141 228.335 14.0135 227.992 14.0135C227.643 14.0135 227.377 13.9141 227.196 13.7152C227.021 13.5096 226.934 13.2643 226.934 12.9792Z" fill="black"></path>
<path d="M222.303 24.7545V19.2149C222.303 18.7906 222.219 18.4226 222.051 18.111C221.889 17.7927 221.643 17.5474 221.313 17.375C220.983 17.2026 220.575 17.1164 220.09 17.1164C219.637 17.1164 219.239 17.196 218.896 17.3551C218.56 17.5143 218.294 17.7231 218.1 17.9817C217.912 18.2403 217.819 18.5187 217.819 18.8171H216.023C216.023 18.4325 216.12 18.0513 216.314 17.6734C216.508 17.2955 216.786 16.954 217.149 16.649C217.518 16.3374 217.958 16.0921 218.469 15.9131C218.987 15.7274 219.563 15.6346 220.197 15.6346C220.961 15.6346 221.634 15.7672 222.216 16.0324C222.805 16.2976 223.265 16.6987 223.595 17.2358C223.931 17.7662 224.099 18.4325 224.099 19.2348V24.2473C224.099 24.6053 224.128 24.9866 224.187 25.391C224.251 25.7954 224.345 26.1435 224.468 26.4353V26.5944H222.595C222.504 26.3822 222.433 26.1004 222.381 25.749C222.329 25.391 222.303 25.0595 222.303 24.7545ZM222.614 20.0702L222.634 21.3631H220.818C220.307 21.3631 219.851 21.4062 219.449 21.4924C219.048 21.572 218.712 21.6946 218.44 21.8604C218.168 22.0261 217.961 22.235 217.819 22.4869C217.676 22.7323 217.605 23.0207 217.605 23.3522C217.605 23.6903 217.679 23.9986 217.828 24.2771C217.977 24.5556 218.2 24.7777 218.498 24.9435C218.802 25.1026 219.174 25.1821 219.614 25.1821C220.165 25.1821 220.65 25.0628 221.071 24.8241C221.491 24.5854 221.825 24.2937 222.07 23.9489C222.323 23.6041 222.459 23.2693 222.478 22.9444L223.245 23.8296C223.2 24.108 223.077 24.4164 222.876 24.7545C222.676 25.0926 222.407 25.4175 222.07 25.7291C221.74 26.0341 221.346 26.2894 220.886 26.4949C220.433 26.6938 219.922 26.7933 219.352 26.7933C218.64 26.7933 218.016 26.6507 217.479 26.3656C216.948 26.0805 216.534 25.6993 216.236 25.2219C215.945 24.7379 215.799 24.1976 215.799 23.6008C215.799 23.024 215.909 22.5168 216.129 22.0792C216.349 21.635 216.667 21.267 217.081 20.9753C217.495 20.6769 217.993 20.4515 218.576 20.299C219.158 20.1465 219.809 20.0702 220.527 20.0702H222.614Z" fill="black"></path>
<path d="M210.897 25.6198C210.897 25.3082 210.991 25.0463 211.178 24.8341C211.373 24.6153 211.651 24.5059 212.013 24.5059C212.376 24.5059 212.651 24.6153 212.839 24.8341C213.033 25.0463 213.13 25.3082 213.13 25.6198C213.13 25.9248 213.033 26.1834 212.839 26.3955C212.651 26.6077 212.376 26.7138 212.013 26.7138C211.651 26.7138 211.373 26.6077 211.178 26.3955C210.991 26.1834 210.897 25.9248 210.897 25.6198Z" fill="black"></path>
<path d="M206.713 23.7401C206.713 23.4749 206.655 23.2295 206.539 23.0041C206.429 22.7721 206.199 22.5632 205.849 22.3776C205.506 22.1853 204.989 22.0195 204.296 21.8803C203.714 21.7543 203.186 21.6051 202.714 21.4327C202.248 21.2604 201.85 21.0515 201.52 20.8062C201.196 20.5609 200.947 20.2724 200.772 19.9409C200.597 19.6094 200.51 19.2215 200.51 18.7773C200.51 18.353 200.601 17.9519 200.782 17.5739C200.97 17.196 201.232 16.8612 201.568 16.5694C201.911 16.2777 202.322 16.049 202.801 15.8832C203.28 15.7175 203.814 15.6346 204.403 15.6346C205.244 15.6346 205.963 15.7871 206.558 16.0921C207.153 16.3971 207.61 16.8048 207.927 17.3154C208.244 17.8193 208.402 18.3795 208.402 18.9961H206.606C206.606 18.6978 206.519 18.4093 206.344 18.1309C206.176 17.8458 205.927 17.6104 205.597 17.4248C205.273 17.2391 204.875 17.1463 204.403 17.1463C203.905 17.1463 203.5 17.2258 203.189 17.385C202.885 17.5375 202.662 17.7331 202.52 17.9717C202.384 18.2104 202.316 18.4624 202.316 18.7276C202.316 18.9265 202.348 19.1055 202.413 19.2646C202.484 19.4171 202.607 19.5597 202.782 19.6923C202.956 19.8183 203.202 19.9376 203.519 20.0503C203.837 20.163 204.241 20.2758 204.733 20.3885C205.594 20.5874 206.302 20.8261 206.859 21.1045C207.415 21.383 207.83 21.7245 208.101 22.1289C208.373 22.5334 208.509 23.024 208.509 23.6008C208.509 24.0716 208.412 24.5025 208.218 24.8937C208.03 25.2849 207.755 25.6231 207.393 25.9082C207.037 26.1866 206.61 26.4054 206.111 26.5646C205.62 26.7171 205.066 26.7933 204.451 26.7933C203.526 26.7933 202.743 26.6242 202.102 26.2861C201.461 25.9479 200.976 25.5103 200.646 24.9733C200.316 24.4362 200.151 23.8694 200.151 23.2726H201.957C201.982 23.7765 202.125 24.1777 202.384 24.476C202.643 24.7678 202.96 24.9766 203.335 25.1026C203.71 25.2219 204.082 25.2816 204.451 25.2816C204.943 25.2816 205.354 25.2153 205.684 25.0827C206.021 24.9501 206.276 24.7678 206.451 24.5357C206.626 24.3036 206.713 24.0384 206.713 23.7401Z" fill="black"></path>
<path d="M195.656 17.5242V26.5944H193.86V15.8335H195.608L195.656 17.5242ZM198.937 15.7738L198.928 17.4844C198.779 17.4513 198.637 17.4314 198.501 17.4248C198.371 17.4115 198.222 17.4049 198.054 17.4049C197.64 17.4049 197.274 17.4712 196.957 17.6038C196.64 17.7364 196.371 17.922 196.151 18.1607C195.931 18.3994 195.757 18.6845 195.627 19.016C195.504 19.3409 195.423 19.6989 195.384 20.0901L194.88 20.3885C194.88 19.7387 194.941 19.1287 195.064 18.5585C195.194 17.9883 195.391 17.4844 195.656 17.0468C195.922 16.6026 196.258 16.2578 196.666 16.0125C197.08 15.7606 197.572 15.6346 198.141 15.6346C198.271 15.6346 198.42 15.6512 198.588 15.6843C198.756 15.7108 198.873 15.7407 198.937 15.7738Z" fill="black"></path>
<path d="M187.676 26.7933C186.945 26.7933 186.282 26.6673 185.686 26.4154C185.097 26.1568 184.589 25.7954 184.162 25.3313C183.741 24.8672 183.418 24.3169 183.191 23.6804C182.965 23.0439 182.852 22.3477 182.852 21.5919V21.1742C182.852 20.299 182.978 19.5199 183.23 18.837C183.483 18.1474 183.826 17.564 184.259 17.0866C184.693 16.6092 185.185 16.2479 185.735 16.0026C186.285 15.7572 186.854 15.6346 187.443 15.6346C188.194 15.6346 188.841 15.7672 189.385 16.0324C189.935 16.2976 190.385 16.6689 190.734 17.1463C191.084 17.617 191.343 18.174 191.511 18.8171C191.679 19.4536 191.763 20.1498 191.763 20.9056V21.7311H183.919V20.2293H189.967V20.0901C189.941 19.6127 189.844 19.1486 189.676 18.6978C189.514 18.2469 189.255 17.8756 188.899 17.5839C188.543 17.2921 188.058 17.1463 187.443 17.1463C187.036 17.1463 186.66 17.2358 186.317 17.4148C185.974 17.5872 185.68 17.8458 185.434 18.1905C185.188 18.5353 184.997 18.9563 184.861 19.4536C184.725 19.9509 184.657 20.5244 184.657 21.1742V21.5919C184.657 22.1024 184.725 22.5831 184.861 23.0339C185.003 23.4782 185.207 23.8694 185.473 24.2075C185.744 24.5456 186.071 24.8109 186.453 25.0031C186.841 25.1954 187.281 25.2915 187.773 25.2915C188.408 25.2915 188.945 25.1589 189.385 24.8937C189.825 24.6285 190.21 24.2738 190.54 23.8296L191.627 24.7147C191.401 25.0661 191.113 25.4009 190.763 25.7192C190.414 26.0375 189.983 26.296 189.472 26.4949C188.967 26.6938 188.369 26.7933 187.676 26.7933Z" fill="black"></path>
<path d="M177.134 26.7933C176.402 26.7933 175.739 26.6673 175.144 26.4154C174.555 26.1568 174.047 25.7954 173.62 25.3313C173.199 24.8672 172.875 24.3169 172.649 23.6804C172.422 23.0439 172.309 22.3477 172.309 21.5919V21.1742C172.309 20.299 172.435 19.5199 172.688 18.837C172.94 18.1474 173.283 17.564 173.717 17.0866C174.15 16.6092 174.642 16.2479 175.192 16.0026C175.742 15.7572 176.312 15.6346 176.901 15.6346C177.652 15.6346 178.299 15.7672 178.842 16.0324C179.392 16.2976 179.842 16.6689 180.192 17.1463C180.541 17.617 180.8 18.174 180.968 18.8171C181.137 19.4536 181.221 20.1498 181.221 20.9056V21.7311H173.377V20.2293H179.425V20.0901C179.399 19.6127 179.302 19.1486 179.134 18.6978C178.972 18.2469 178.713 17.8756 178.357 17.5839C178.001 17.2921 177.516 17.1463 176.901 17.1463C176.493 17.1463 176.118 17.2358 175.775 17.4148C175.432 17.5872 175.137 17.8458 174.891 18.1905C174.645 18.5353 174.454 18.9563 174.319 19.4536C174.183 19.9509 174.115 20.5244 174.115 21.1742V21.5919C174.115 22.1024 174.183 22.5831 174.319 23.0339C174.461 23.4782 174.665 23.8694 174.93 24.2075C175.202 24.5456 175.529 24.8109 175.911 25.0031C176.299 25.1954 176.739 25.2915 177.231 25.2915C177.865 25.2915 178.402 25.1589 178.842 24.8937C179.282 24.6285 179.667 24.2738 179.998 23.8296L181.085 24.7147C180.858 25.0661 180.57 25.4009 180.221 25.7192C179.871 26.0375 179.441 26.296 178.93 26.4949C178.425 26.6938 177.826 26.7933 177.134 26.7933Z" fill="black"></path>
<path d="M168.776 22.9345C168.776 22.5964 168.724 22.298 168.62 22.0394C168.523 21.7742 168.348 21.5355 168.096 21.3234C167.85 21.1112 167.507 20.909 167.067 20.7167C166.633 20.5244 166.083 20.3288 165.417 20.1299C164.718 19.9178 164.087 19.6824 163.524 19.4238C162.961 19.1586 162.479 18.8569 162.077 18.5188C161.676 18.1806 161.369 17.7928 161.155 17.3552C160.942 16.9176 160.835 16.417 160.835 15.8534C160.835 15.2898 160.948 14.7694 161.175 14.292C161.401 13.8146 161.725 13.4002 162.145 13.0488C162.572 12.6908 163.08 12.4123 163.669 12.2134C164.258 12.0145 164.915 11.915 165.64 11.915C166.701 11.915 167.601 12.1239 168.339 12.5416C169.083 12.9527 169.649 13.493 170.038 14.1627C170.426 14.8257 170.62 15.5352 170.62 16.291H168.756C168.756 15.7473 168.643 15.2666 168.416 14.8489C168.19 14.4246 167.847 14.0931 167.387 13.8544C166.928 13.6091 166.345 13.4864 165.64 13.4864C164.973 13.4864 164.423 13.5892 163.99 13.7947C163.556 14.0003 163.233 14.2787 163.019 14.6301C162.812 14.9815 162.708 15.3827 162.708 15.8335C162.708 16.1385 162.77 16.417 162.893 16.6689C163.022 16.9143 163.22 17.143 163.485 17.3552C163.757 17.5673 164.1 17.7629 164.514 17.9419C164.935 18.121 165.436 18.2933 166.019 18.4591C166.821 18.6912 167.514 18.9497 168.096 19.2348C168.679 19.5199 169.157 19.8415 169.533 20.1995C169.915 20.5509 170.196 20.9521 170.377 21.4029C170.565 21.8472 170.659 22.3511 170.659 22.9146C170.659 23.5047 170.542 24.0385 170.309 24.5158C170.076 24.9932 169.743 25.401 169.31 25.7391C168.876 26.0773 168.355 26.3392 167.747 26.5248C167.145 26.7038 166.472 26.7933 165.727 26.7933C165.074 26.7933 164.43 26.7005 163.796 26.5149C163.168 26.3292 162.595 26.0507 162.077 25.6794C161.566 25.3082 161.155 24.8507 160.844 24.307C160.54 23.7567 160.388 23.1202 160.388 22.3975H162.252C162.252 22.8947 162.346 23.3224 162.534 23.6804C162.721 24.0318 162.977 24.3236 163.3 24.5556C163.631 24.7877 164.003 24.9601 164.417 25.0728C164.838 25.1789 165.274 25.2319 165.727 25.2319C166.381 25.2319 166.934 25.1391 167.387 24.9534C167.84 24.7678 168.183 24.5026 168.416 24.1578C168.656 23.813 168.776 23.4053 168.776 22.9345Z" fill="black"></path>
</svg>