<svg width="18" height="18" viewBox="0 0 18 18" fill="none" xmlns="http://www.w3.org/2000/svg">
<path d="M9.00176 1.62102C11.4069 1.62102 11.6917 1.63157 12.6376 1.67376C13.5167 1.71244 13.9914 1.86013 14.3079 1.9832C14.7263 2.14495 15.0287 2.34186 15.3417 2.65482C15.6581 2.97128 15.8515 3.27017 16.0133 3.68861C16.1364 4.00508 16.284 4.4833 16.3227 5.35886C16.3649 6.30826 16.3755 6.59308 16.3755 8.99473C16.3755 11.3999 16.3649 11.6847 16.3227 12.6306C16.284 13.5097 16.1364 13.9844 16.0133 14.3008C15.8515 14.7193 15.6546 15.0217 15.3417 15.3346C15.0252 15.6511 14.7263 15.8445 14.3079 16.0063C13.9914 16.1293 13.5132 16.277 12.6376 16.3157C11.6882 16.3579 11.4034 16.3684 9.00176 16.3684C6.5966 16.3684 6.31178 16.3579 5.36589 16.3157C4.48681 16.277 4.01211 16.1293 3.69564 16.0063C3.2772 15.8445 2.9748 15.6476 2.66185 15.3346C2.34538 15.0182 2.15198 14.7193 1.99023 14.3008C1.86716 13.9844 1.71948 13.5062 1.6808 12.6306C1.6386 11.6812 1.62805 11.3964 1.62805 8.99473C1.62805 6.58957 1.6386 6.30475 1.6808 5.35886C1.71948 4.47978 1.86716 4.00508 1.99023 3.68861C2.15198 3.27017 2.3489 2.96777 2.66185 2.65482C2.97832 2.33835 3.2772 2.14495 3.69564 1.9832C4.01211 1.86013 4.49033 1.71244 5.36589 1.67376C6.31178 1.63157 6.5966 1.62102 9.00176 1.62102ZM9.00176 0C6.55792 0 6.252 0.0105489 5.29205 0.0527447C4.33561 0.0949404 3.67806 0.249658 3.10842 0.471186C2.51416 0.703262 2.01133 1.00918 1.51201 1.51201C1.00918 2.01133 0.703262 2.51416 0.471186 3.1049C0.249658 3.67806 0.0949404 4.3321 0.0527447 5.28853C0.0105489 6.252 0 6.55792 0 9.00176C0 11.4456 0.0105489 11.7515 0.0527447 12.7115C0.0949404 13.6679 0.249658 14.3255 0.471186 14.8951C0.703262 15.4894 1.00918 15.9922 1.51201 16.4915C2.01133 16.9908 2.51416 17.3003 3.1049 17.5288C3.67806 17.7503 4.3321 17.9051 5.28853 17.9473C6.24849 17.9895 6.55441 18 8.99824 18C11.4421 18 11.748 17.9895 12.708 17.9473C13.6644 17.9051 14.3219 17.7503 14.8916 17.5288C15.4823 17.3003 15.9852 16.9908 16.4845 16.4915C16.9838 15.9922 17.2932 15.4894 17.5218 14.8986C17.7433 14.3255 17.898 13.6714 17.9402 12.715C17.9824 11.755 17.993 11.4491 17.993 9.00527C17.993 6.56144 17.9824 6.25552 17.9402 5.29557C17.898 4.33913 17.7433 3.68158 17.5218 3.11194C17.3003 2.51416 16.9943 2.01133 16.4915 1.51201C15.9922 1.0127 15.4894 0.703262 14.8986 0.474702C14.3255 0.253174 13.6714 0.0984567 12.715 0.056261C11.7515 0.0105489 11.4456 0 9.00176 0Z" fill="white"/>
<path d="M9.00176 4.37781C6.44892 4.37781 4.37781 6.44892 4.37781 9.00176C4.37781 11.5546 6.44892 13.6257 9.00176 13.6257C11.5546 13.6257 13.6257 11.5546 13.6257 9.00176C13.6257 6.44892 11.5546 4.37781 9.00176 4.37781ZM9.00176 12.0012C7.34558 12.0012 6.00234 10.6579 6.00234 9.00176C6.00234 7.34558 7.34558 6.00234 9.00176 6.00234C10.6579 6.00234 12.0012 7.34558 12.0012 9.00176C12.0012 10.6579 10.6579 12.0012 9.00176 12.0012Z" fill="white"/>
<path d="M14.8881 4.19493C14.8881 4.7927 14.4028 5.27444 13.8086 5.27444C13.2108 5.27444 12.729 4.78919 12.729 4.19493C12.729 3.59715 13.2143 3.11542 13.8086 3.11542C14.4028 3.11542 14.8881 3.60067 14.8881 4.19493Z" fill="white"/>
</svg>
