<svg width="24" height="16" viewBox="0 0 24 16" fill="none" xmlns="http://www.w3.org/2000/svg">
<path d="M22.8494 3.45237C22.8494 3.45237 22.6273 1.88392 21.943 1.19522C21.0766 0.288809 20.108 0.284365 19.6636 0.231047C16.4823 -1.27121e-07 11.7058 0 11.7058 0H11.697C11.697 0 6.92051 -1.27121e-07 3.73917 0.231047C3.29485 0.284365 2.32623 0.288809 1.4598 1.19522C0.775546 1.88392 0.557829 3.45237 0.557829 3.45237C0.557829 3.45237 0.326782 5.29631 0.326782 7.1358V8.85976C0.326782 10.6992 0.553386 12.5432 0.553386 12.5432C0.553386 12.5432 0.775546 14.1116 1.45536 14.8003C2.32178 15.7067 3.45925 15.6756 3.96577 15.7734C5.78749 15.9467 11.7014 16 11.7014 16C11.7014 16 16.4823 15.9911 19.6636 15.7645C20.108 15.7112 21.0766 15.7067 21.943 14.8003C22.6273 14.1116 22.8494 12.5432 22.8494 12.5432C22.8494 12.5432 23.076 10.7037 23.076 8.85976V7.1358C23.076 5.29631 22.8494 3.45237 22.8494 3.45237ZM9.35094 10.9525V4.55873L15.4959 7.76673L9.35094 10.9525Z" fill="white"/>
</svg>
