<svg xmlns="http://www.w3.org/2000/svg" width="93" height="24" fill="none"><path fill="#fff" d="M92.431 5.234h-2.774V24h2.774zM48.27 5.234v14.209c0 .186 0 1.813-1.772 1.813H30.162c-1.773 0-1.773-1.627-1.773-1.813V5.234H15.588V24h2.79V7.986h7.223v12.16c0 1.502 1.011 3.853 3.925 3.853h17.589c2.919 0 3.931-2.35 3.931-3.854l-.002-14.91zM82.478 5.234 70.213 21.443 57.945 5.234h-4.336V24h2.787V7.735l12.236 16.264h3.163L84.012 7.735v16.264h2.794V5.234z"/><path fill="#fff" d="M0 0v7.986h10.01V24h2.788V5.235H2.788V2.732h89.644V0z"/></svg>